/* XPM */
static char *bpmdj[] = {
/* columns rows colors chars-per-pixel */
"64 64 256 2 ",
"   c #038107320295",
".  c #0AA21666078C",
"X  c #11401C800A91",
"o  c #31D00EFD09A4",
"O  c #143F25960CD3",
"+  c #0ED32ACC1006",
"@  c #18232B04112F",
"#  c #1CB9367F1444",
"$  c #388A2F1D0FE4",
"%  c #22D93B2916C7",
"&  c #275211DB2DC3",
"*  c #2C0D228E2DCE",
"=  c #4EBE24871805",
"-  c #4E1730F10FED",
";  c #29FD48B01C34",
":  c #2FA651FF10C5",
">  c #0D7F66011E19",
",  c #3873699C15C9",
"<  c #2DF94E8320C8",
"1  c #256248F12A6B",
"2  c #2C51553A24FE",
"3  c #32A055DF2262",
"4  c #36875C752527",
"5  c #355A581C2A1E",
"6  c #35514DD82FF8",
"7  c #386A6342277A",
"8  c #3AFE63C1284D",
"9  c #3EAA69E82AEB",
"0  c #35F37086320E",
"q  c #4C7D4C251625",
"w  c #611961711793",
"e  c #520551A52781",
"r  c #42116CC62BCB",
"t  c #42B970FD2DAF",
"y  c #46447808289E",
"u  c #52656E283022",
"i  c #468977623052",
"p  c #4EAE77AB366B",
"a  c #4A7D7DAB3310",
"s  c #69116F6D2FBA",
"d  c #26172FB45B6F",
"f  c #5DCB3AD15BD7",
"g  c #29B15E5D5AF2",
"h  c #090155E16E85",
"j  c #16796E33782A",
"k  c #4FCA4EBC4D5E",
"l  c #63746C344C78",
"z  c #75A34CF36D30",
"x  c #B1F91CCB01BC",
"c  c #9A7C30430343",
"v  c #B1A3332F08DD",
"b  c #BB120BB2394D",
"n  c #C55D28871BED",
"m  c #AAE0515F0DB5",
"M  c #A2356522164B",
"N  c #B32E6E8713A6",
"B  c #CDB2500A1689",
"V  c #C9E76E401B80",
"C  c #D128717822C1",
"Z  c #E16C7E422807",
"A  c #9F26329E5DC0",
"S  c #B4700F076FFB",
"D  c #CA592D074677",
"F  c #E41D1B516342",
"G  c #D3B5286078B7",
"H  c #F3482F5173F2",
"J  c #8F2359E1640E",
"K  c #D0A1610454A7",
"L  c #F3DB50A975BB",
"P  c #0B8292410D2D",
"I  c #190BADAD10FB",
"U  c #23C0BB721400",
"Y  c #29779BC52C9A",
"T  c #505593F0097A",
"R  c #6E39905A0A4C",
"E  c #5258B05D0FB7",
"W  c #6FACADE70DF3",
"Q  c #5005853D2A9B",
"!  c #4E6E84C83592",
"~  c #4C4887A935D5",
"^  c #533E88BF35C8",
"/  c #527C8B6A38A3",
"(  c #563291C83AC6",
")  c #59A594DE3C16",
"_  c #5AEB9A083E28",
"`  c #6E34927B3523",
"'  c #68D6AA642CAD",
"]  c #2FD4CC671852",
"[  c #2FD7D3132F05",
"{  c #2DCFD229322E",
"}  c #7531C72519C6",
"|  c #50EEFAB01AE4",
" . c #6BEEEAD41F41",
".. c #4400D8422665",
"X. c #515AF5502F0A",
"o. c #68F3FA362595",
"O. c #714CFB683296",
"+. c #076495C86F29",
"@. c #16A3ADBB6EA3",
"#. c #26A5A0BC606D",
"$. c #5A698A6047BB",
"%. c #5BCF95934140",
"&. c #5E129EA4407D",
"*. c #630198A04A2D",
"=. c #68849332513D",
"-. c #597AA16E566D",
";. c #648DA94D44E5",
":. c #71D9AF4D4EF1",
">. c #6B00B3F3497D",
",. c #6DC5B9944B12",
"<. c #7445A7765CF7",
"1. c #75C6B8F05721",
"2. c #7B1F9AA96C50",
"3. c #7B8BA86E6718",
"4. c #7E2AB71A641F",
"5. c #2F23D0AC503A",
"6. c #1884C7D16327",
"7. c #2B1CCE4969A5",
"8. c #778FC5FB4B69",
"9. c #720EC15B4DDE",
"0. c #74EFD75D4FCB",
"q. c #75E5C72A50FD",
"w. c #771DCA795206",
"e. c #786BCC6F5319",
"r. c #6166DBA253A6",
"t. c #6EA9FA1D49E1",
"y. c #AE958EE510CB",
"u. c #9F0DA237164A",
"i. c #ACE8B15312CA",
"p. c #8D7D8F7B2D24",
"a. c #8FD6B282346C",
"s. c #B936B378274F",
"d. c #C93786BC1BC8",
"f. c #CF268F342688",
"g. c #E4C994582E7D",
"h. c #C859AB7B286A",
"j. c #EE25B0723494",
"k. c #9175D0C31814",
"l. c #AB24CD6B18AE",
"z. c #AC89E13F0A0D",
"x. c #8EA3D5272C4F",
"c. c #B296D31528E1",
"v. c #9059F2492EDE",
"b. c #AFECF4782D21",
"n. c #D39BFFFF18AA",
"m. c #C655D1FF2C95",
"M. c #FA66CE1239C6",
"N. c #CF7FF62F357C",
"B. c #ECB4FB013A73",
"V. c #9AC098BA5248",
"C. c #869498D7754A",
"Z. c #8769A90B7810",
"A. c #889BB7937326",
"S. c #DD8F9398637B",
"D. c #99A6D25B520A",
"F. c #AD73D3274E95",
"G. c #9549FBFE4731",
"H. c #B02BFA7251FC",
"J. c #8A67C3A87066",
"K. c #FA02CF494403",
"L. c #D828E65A4FE5",
"P. c #FEA0FE234560",
"I. c #F33CF3A74ACF",
"U. c #F433FB557030",
"Y. c #352C0F909655",
"T. c #0C4A330F976F",
"R. c #2A8F302D97E8",
"E. c #12A82D66A900",
"W. c #32DF2F13AA1D",
"Q. c #6C830FF89788",
"!. c #62AF1FE7AD8C",
"~. c #17BE4AA2960B",
"^. c #0C9F762F8A4E",
"/. c #228563869DD1",
"(. c #255E531FB022",
"). c #2CD36AEBAE60",
"_. c #6069568B98C8",
"`. c #33143221F1DB",
"'. c #61212018D453",
"]. c #4BD9333EF3B2",
"[. c #30974E50F5D8",
"{. c #25D773DDF19A",
"}. c #669361D9D4F7",
"|. c #55C94F2EF7E9",
" X c #6A9357C5FEDD",
".X c #68C569FBFFFF",
"XX c #BB742BC4911B",
"oX c #875B3627AA7F",
"OX c #B2E1390AB06D",
"+X c #D35231F08854",
"@X c #DA421ABEA239",
"#X c #FC8F3426BA24",
"$X c #92B04B689677",
"%X c #ACC663929F43",
"&X c #8E8B46D3B44F",
"*X c #F1354C2E958F",
"=X c #E1D262E093E5",
"-X c #F55B5211AC3C",
";X c #FA046BD2AEAC",
":X c #89F930E1C954",
">X c #93F02615F58E",
",X c #EEC83840C900",
"<X c #8EF25154D10E",
"1X c #955F5483FFA0",
"2X c #AC884EA5FFFF",
"3X c #A0876867E709",
"4X c #B2A16F6CF8BA",
"5X c #E61D522BD55B",
"6X c #FE286F6FD12E",
"7X c #FAC2540DEF8B",
"8X c #CD3A759CF659",
"9X c #FAF1700FF1BD",
"0X c #16158E929668",
"qX c #22D7A4A590B8",
"wX c #28FBA95D976E",
"eX c #2F5C8C56B4B0",
"rX c #539BA3FDB1DF",
"tX c #208EDECE9EB8",
"yX c #2BC4F2E69050",
"uX c #2C5FF605A99F",
"iX c #55E7F690AB90",
"pX c #1A0CA48DCB1B",
"aX c #341B93FDFA40",
"sX c #37E0AB50F9DC",
"dX c #6C6B92EDEAC7",
"fX c #5282B472FFFF",
"gX c #19E2CA77CF4B",
"hX c #2C68D8D0D2C2",
"jX c #25E6E693D51C",
"kX c #2934FB4FF64B",
"lX c #36D4FFCBFE00",
"zX c #6338E4B4DE9A",
"xX c #5C64CC01FFFF",
"cX c #47A8FF73FEB4",
"vX c #53F1FFFFFFFF",
"bX c #94459F028B89",
"nX c #93AEA7878A97",
"mX c #97E4AC7F8E70",
"MX c #973BB6F988AF",
"NX c #A238BD1B95F1",
"BX c #AC04B503A5D1",
"VX c #EC1C96F2A414",
"CX c #9812D1149B0B",
"ZX c #B6A3C6EDAF30",
"AX c #F2B0F323929B",
"SX c #8F2A9604F192",
"DX c #ACF58A7BFFC1",
"FX c #FFAE8993D304",
"GX c #CDFA903FF545",
"HX c #F74C89E3F111",
"JX c #FF059844FCCC",
"KX c #EA35A8F2E085",
"LX c #F9ABA972F523",
"PX c #9F57FDC3DD43",
"IX c #F666D328DE26",
"UX c #FD82F664FAD6",
/* pixels */
"e.e.e.e.w.w.w.w.w.w.e.e.e.e.e.e.w.w.e.e.e.e.e.e.e.e.e.e.0.w.w.e.e.e.e.e.e.w.e.e.e.e.e.e.e.e.w.0.w.w.e.e.e.e.e.e.e.e.q.e.e.e.e.e.",
"q.q.q.q.q.q.w.q.w.w.8.8.q.q.q.q.q.q.q.q.q.q.q.w.q.q.w.q.q.8.q.q.q.q.w.e.w.q.q.q.q.q.q.q.q.q.w.w.q.q.q.q.q.q.q.q.q.q.q.q.q.q.q.q.",
"1.e.F.F.F.D.e.8.9.,.9.9.9.9.1.9.9.9.9.9.9.9.9.9.9.9.9.9.9.9.9.9.9.q.9.e.9.9.9.9.q.q.9.9.9.9.9.9.9.q.9.9.9.9.,.9.1.q.9.9.9.,.9.9.",
",.F.K.P.P.I.I.N.H.D.8.,.,.,.,.,.,.,.,.,.,.,.,.,.,.,.,.,.,.,.,.,.1.J.J.MXJ.q.,.A.J.4.J.J.J.J.1.4.J.A.J.J.e.4.J.w.J.J.,.J.4.J.q.1.",
",.m.K.I.I.P.P.P.P.P.L.F.,.>.>.>.>.>.>.>.>.>.>.>.>.>.,.>.>.>.>.>.1.NXMXMXMXA.1.4.MXZXZXZXMX4.A.NXMXA.MXZXZXA.NXZXnXNX4.NXMXMXA.:.",
"<.K.K.I.I.P.P.P.P.P.P.B.F.>.;.;.;.;.;.>.;.;.;.;.;.;.;.;.;.;.>.;.<.MXA.A.NX3.<.<.MXZXZXBXA.A.4.NXZ.MXMXBXZXMXNXBXMXA.4.NXA.NXA.>.",
":.K.K.K.I.P.P.P.P.P.P.B.B.D.;.;.;.;.;.;.;.;.;.;.;.;.;.;.;.;.;.;.;.*.*.=.2.&.*._ =.2.$.=.2.<.-.=.$.=.=.*.*.=.$.=.*.*.*.*.*.2.<.&.",
"` j.K.K.K.P.P.P.P.P.P.P.N.b.>._ &.&._ &.&.&.&.&.&.&._ &.&.&._ _ &.&.&.&.&.&.&.&.&.%.&.&.%.%._ -.&.&.%.&.&.&.&.&.&.&.&.&.&.%.%.&.",
"=.j.M.K.M.L.F.m.B.B.B.B.B.N.D._ _ _ _ _ ) _ _ _ _ _ _ _ _ _ _ %._ _ _ _ %._ _ _ _ _ _ _ %._ _ _ _ _ _ _ _ %.%.%.( %._ _ _ _ _ _ ",
"p.j.j.K.M.m._ ) _ a.N.N.N.N.G._ ( ( ( ( ( ( ( ( ( ( ( ( ( ( ( ) ) ( ( ( ( ) ( ( ( ( ( ( ( ) ( ( ( ( / / ( ( ( / ( ( ( ( ( ( ( ( ",
"*.j.j.j.M.a.^ ^ ~ / ) F.N.N.b.>./ / / / / / / / / / / / / / / / / / ^ / / / / / / / / / $.! ~ a / =.2.=.$.~ ! $./ / / / / / / / ",
"` g.j.M.K.s.! ! ~ ! ! a.N.N.b.a.! ! ! ~ ! ! ! ! ! ! ! ! ! ! ! ~ ! ! ! ! ! ! ~ ~ ! ! ! ! a $.$.C.%XDXHXKXGXBXC.$.~ ~ ! ~ ! ! ! ! ",
"s g.j.j.M.a.y a p ! ;.c.b.N.b.D.a a a a a a a a a a a a a a a a a a a a a a a a a a ! a a _.SXDXGXKXGXGXHXHXJXVX$.Q a a a a a a ",
"` g.g.j.j.a.t i i u x.n.N.b.b.v.a i i i i i i i i i i i i i i i i i i i i i i i i i i i Q dXDXGXLXGXGX9X9X9X9X6X%Xp i i i i i i ",
"s g.g.g.j.a.t r t t a.P.B.b.v.v.p t t t t t t t t t r t r r r r r t t t t t t t t r r t y BXDXDXGXGX4X8X8X6X9XFX6XJ r t t y r t ",
"u g.g.g.j.p.8 9 r r a.P.B.b.b.x.t 9 9 9 9 r 9 9 9 9 r r r r r r r 9 9 9 r 9 9 9 r 9 9 9 r }.DXDXGXGX4XJ a l %X;X;X=Xu u l l r r ",
"w Z d.g.j.p., 4 8 7 ` P.B.b.v.x.r 8 8 8 8 8 8 8 r 4 8 8 8 8 r 4 8 8 8 r 8 r 8 r 8 8 8 8 y }.4XDXGXGX<Xl 0 8 k J ;X;XVXZXIXVXs e ",
"e Z Z g.h.p.4 q , 3 ` P.B.v.v.} 8 4 4 4 4 4 4 4 4 5 4 4 4 4 4 4 4 4 4 4 3 4 3 4 4 4 4 4 9 }.DXDXGX8X3Xl l l z J %X;XVXIXIXS.J 8 ",
"e Z C f.d.p.3 3 2 2 p.U.N.b.v.} 4 3 3 3 3 3 3 3 3 3 < < 3 3 3 3 3 3 3 3 3 3 3 3 3 3 3 3 4 }.SX4X8X8XOXk $X5X5X-X=X*X;XKXIXL s q ",
"e C C d.f.p.< < < 2 V.U.N.k.k.W < < < 3 , 4 4 3 3 < < 1 < < < 3 < < : < < < < 3 < < < : , }.1X4X8X3X<Xk z 7X5X7X5X*X=X;XL L s < ",
"q C V V d.p.; ; ; ; F.L.l.z.k.y ; < Q ..] U Y { Y Y 0 1 ; ; ; < < 2 < < 3 5 6 < ; ; ; ; 6 }.1X1X4X3X&Xk f 7X7X7X7X-XH A e e q % ",
"q B V V d.w % % ; w L.s.k.k.} < ; 4  .t...] { { { 5.6.Y 2 1 0 wXhXrX#.g g g ^./.6 1 6 d d }.1X4X2X<X&Xk ; 5X7X7X5X-X*Xs ; ; % ; ",
"q B N V V p.w q w i.l.l.l.k.T # # , G.O.{ { U { { 6.6.6.#.1 rXcXvXhXqX0Xj 0X).)./.g h R.(.}. X1X2X3X&X* # %X7X7X7X-XL f % % % % ",
"- B B N V y.y.y.h.i.l.l.k.' % $ # 4 O.X.] U U Y Y 5.6.6.@.Y tXvXvXhXwX0X^.).0X/.(.~.R.R.W.W.'.1X2XOXoXf @ $X9X9X6X#X+XA * = % % ",
"- B v N N y.y.y.i.i.i.l.W $ @ @ @ 4 O.O.] U I Y P #.#.6.@.@.jXcXcXhX0X0X0Xj j ~.(.~.E.E.R.W.'.1X2X:X:X* X $X9X9X9X#XG G L D - # ",
"$ B m m N N y.y.y.i.i.i.W w # O O : O.o.] I I # + + > Y @.@.zXlXlXhX0X0X/.d d h ~.~.T.d d R.!. X2X:XoX* O z JXJX9X#X+XH *XF = O ",
"$ B v m m N M y.u.i.i.i.k.W T O X : o.X.] I I + + + . 1 #.@.jXlXlXgX0X0XpXpX{.).T.E.E.E.Y.W.Y.>X>X:XoX* . f JXJX6X#XG G H F = O ",
"o n v m M M M y.y.u.i.u.u.W R , . : o.X.] P P . X > > +.+.+.tXkXlXhX0X^.pXsXaX{.T.E.`.`.`.'.Y.'.>X:XQ.* . f JXJX6X#X+XG H D = X ",
"o v c m m c - q : q w R u.W W T # % | | U P P . . > 6.6.6.+.qXkXkXgX0Xh pXsXaX{.T.E.`.`.].'.Y.'.>X:XQ.&   f JXLX7X#X+XF H b = o ",
"o x c c m q           . : R R T , : | | U P P .   +.yXyXtX+.+.kXkXgX^.h pXaXaX{.T.E.[.`.].`.Y.'.>X:XQ.&   z JXJX#X#XG @XF b o   ",
"o x c c m -               : R T T : | | U P P .   > yXyXtX+.+.jXkXgX^.h eXsXfX{.T.E.`.`.].`.Y.'.>X!.Q.&   z JX9X#X@XS F F b o   ",
"o x c c c -             o % T T T > | | I P >     + yXuXyX+.+.jXkXgX~.h eXsXaX[.E.E.`.`.].'.Y.'.>X'.Q.&   $XHX7X@X@XS F F b o   ",
"o x c c v -             R R T T T P | | I P P     + yXuXuX+.+.jXkXgX^.h ).sXsX{.T.E.[.|.|.`.Y.'.>X'.Q.&   %XJX,X@XS S F F b o   ",
"o x c c m -       .     R z.W T T T | | U P > .   # yXiXuX+.+.jXkXgX0Xh eXfXaX{.T.E.[.|.].'.Y.'.>X!.Q.& & GXHX@XXXS S +XH b =   ",
"o v c m m - . . o . .   R n.k.T T E | | U P P X . # iXiXuX+.qXjXkXgX^.h eXfXfX{.T.E.[..X|.'.Y.'.>X:XQ.& f JX8X@X@XS S H H b o   ",
"o v v m m w X X X . . . ` B.k.T E E | | U I P + X 1 iXzXuX+.@.jXkXgX^.h rXxXfX{.T.(..X.X X].Y.'.>X!.Q.& %XJX,X@XXXS XX#XH b = X ",
"$ v m m m q X X X X X X V.I.k.W E E | | U I P + + g PXiXuX@.qXjXlXgX0Xg rXxXxX{.E.(..X.X|.'.R.:X2X:XQ.z LXLX7X,X@XS +X*XH D = . ",
"$ v m m B w O @ @ @ O # F.U.k.E E E o.| ] I I @ + -.PXiXtX@.qXkXlXhX0Xj rXxXfXaX~.(.dX.X X].W.<X2X:XQ.KXUXJX7X9XOXG *X-XH b = X ",
"$ B m m N w @ # @ @ @ e AXU.k.E E E o.| ] I I # ; J.PXiXtX@.tXkXlXhXwXj rXxXxXaX(.(..XdX.X]._.<X2X:XoX8XJX7X7X,X+X+X-X-XH D = @ ",
"$ B m M N w # # % # # V.AXL.k.} } E  .| { U I # ~ PXPXiX@.@.tXlXlXhXwXj zXzXfXaX(.).dXSX.X].W.<X2X:XoXOXOXOXOXXXXX-X;X-X*XD = % ",
"q B M V N w @ % % : V.AXU.c.} } E E o.o.] U U 0 CXPXt.6.6.7.uXlXlXhXqX^.rXPXxXaX/.).SXSX.X]._.<X4X:XoXoXOXOXOXXX%X6X;X;XH D e ; ",
"6 B M N f.V.=.V.V.AXAXU.c.x.k.} E Q o.| ..] [ CXPXiX7.6.7.wXzXvXcXhXwXqXzXPXxXaX/.).fXSX.X].W.<X2X:X$X&X%XOXXX$X%XFX;X;XL D q ; ",
"q B N V C L.AXU.U.U.B.m.k.k.k.} E , o.o...] [ 5.r.7.7.7.7.#.zXvXvXhXwXqXCXPXxXaX).).SXSX.X}._._.&X&X$X&X$X$Xz q %XHX6X;XL D e $ ",
"e V V N d.f.h.h.s.c.l.z.c.x.}  .y y O.o...] [ [ 5.5.5.7.7.#.zXzXvXhXrX#.rXzXxXfX)./.).).|.}.R.k 2 6 6 e 6 6 < < C.FXFX;X*XK e < ",
"6 V V C f.y.h.s.i.m.z.c.b.x.k.' : Q o.o.| ] [ [ 5.5.7.r.#.5 -.hXcXhXwX#.6 g qX).l g < 3 6 k 4 3 4 3 2 3 3 3 3 < %XFXFX;XL K w 5 ",
"r C d.p.s.h.s.s.m.c.m.b.c.v.} , 4 Q v.o...[ { X.X.5.5.7.~ 3 5 0 $.#.0 5 8 r 8 5 8 8 4 4 4 7 4 4 4 4 4 4 5 5 5 8 C.KXKXFXL K s 4 ",
"8 M f.f.f.h.h.m.m.m.b.b.b.k.Q 7 8 Q O.o.X.[ { { 5.5.5.0 7 7 8 8 5 5 8 8 r 4 5 4 8 4 8 8 7 7 7 7 8 8 8 8 5 8 8 9 BXIXIXVX*XK s 6 ",
"r l f.f.h.h.h.m.m.m.n.c.a.y 9 9 9 ( G.o.X.X.[ a 0 ~ r 9 9 9 9 r 9 9 r r r r r r r r r 8 9 9 9 9 9 9 9 9 9 r r p ZXUXUXIXVXK s r ",
"t t p.f.h.s.s.a.a.a.` Q i r t t r _ G.O.o.X.X.0 r t t t t t t t t t t t t t t r t t t r t t t r t t t t t r t l UXUXUXVXVXK s i ",
"a i u ` ` Q p p y u i i i i i i y &.G.o.X.X.{ ~ i i i i i i i i i i i i i i i i i i t i i i i i i i i i i i i C.IXUXUXIXVXZ p a ",
"a a a ! a a a i p a a a a a a a a &.G.O.X.X.X.~ a a a a i a a a a a a a a a a a a a a a a a a a a a a a a a i $.=XVXVXKXVXK p ! ",
"! ! ! ! ! ! ^ ! ^ Q ! ! ! ! ~ Q Q ;.H.O.X.X.r.~ ! ~ ~ ~ ! ~ ~ ~ ! ! ! ! ! ! ! a ! ! ! ! ! ~ ! ! ! ! ! ~ ! ! ! ~ C.=XVXS.S.V.^ ^ ",
"/ / / / / / / / / / / / / / / / ^ ;.H.v.t.X.X.( / / / / / / / / / / / / / / / / / / / / / / / / / / / / / / / / ^ =.2.S.S.V.p ! ",
"( ( ( ( ( ( ( ) ( ( ( ( ) ) ( ( / >.H.O.X.X.r.%.( ( ( ( ( ( ( ( ( ( ( %.( / ( ( ( _ ( ( ( %._ ( ( ( / ( ( ( ( / / ( ~ %.` $./ / ",
") %._ _ _ _ _ %._ _ _ _ _ &.) %.%.,.H.t.t.X.r.&.%.%.%.%._ _ _ _ %.( =.2.<.<.<.Z.<.Z.=.Z.<.*.3.2.<.<.<.<.*.3.2.<.=.<.Z.3.2.3.<.) ",
"&.&.&.&.&.&.&.&.&.&.&.&.&.&.&.&.&.1.H.G.t.t.X.;.&.&.&.&.&.&.&.&.&.&.:.2.2.mXmXbXmXnX=.MXmX-.BXBXbXC.BXbX$.4.bXBXC.Z.BXnX2.Z.nX%.",
";.;.;.;.;.&.;.&.;.&.;.&.;.&.;.;.&.1.H.G.t.t.t.-.&.;.&.;.;.&.;.&.;.;.<.Z.2.nXbX2.bXbX*.nXnX%.NXmX2.2.mX2.*.4.mXbX<.<.mXC.bXnX2.&.",
";.;.;.;.;.>.;.;.;.;.;.>.;.>.;.;.;.9.H.H.t.t.r.>.>.;.>.;.;.>.;.;.;.;.>.*.&.*.*.-.*.-.;.*.=.;.*.*.*.*.=.*.;.;.=.&.*.;.*.*.*.=.*.;.",
">.>.>.>.>.>.>.>.>.>.>.>.>.>.>.>.>.,.G.G.t.t.t.,.>.>.>.>.>.>.>.1.1.4.1.>.>.,.1.>.,.,.,.,.:.>.>.>.4.4.,.,.>.,.>.>.1.1.>.,.,.>.:.>.",
",.,.,.,.,.,.,.,.>.,.,.,.,.,.,.,.,.>.9.G.G.t.t.,.,.,.,.,.,.,.>.J.NXMXMXMX1.<.A.MXNXnXMXNXMX;.J.NXMXA.MXNXMXnXCXMXmXA.A.MXZ.MX3.>.",
"9.9.9.9.9.9.9.9.9.9.9.9.9.9.9.9.1.9.9.e.t.t.0.9.9.9.9.9.9.9.9.J.nXZ.MXnX3.<.A.ZXmX2.mXBX2.q.NXmXZ.MXMXZXZXnXNXBXnXZ.A.NXZ.nX<.,.",
"q.q.q.q.q.q.q.q.q.q.q.q.q.q.q.q.q.q.q.q.e.w.w.q.9.q.q.q.q.q.q.q.<.4.A.2.:.1.1.Z.2.<.3.2.3.1.4.2.2.3.Z.2.2.3.2.2.3.<.A.2.4.mX:.w.",
"w.e.w.w.e.e.e.e.e.e.e.e.e.e.e.e.e.e.e.e.e.e.e.e.e.e.e.e.e.e.e.q.q.q.1.1.e.q.e.q.q.w.q.q.w.w.1.9.q.9.9.q.q.9.q.9.9.9.w.q.e.<.9.w.",
"e.e.w.0.e.e.e.e.e.e.e.e.e.e.e.e.e.e.e.e.e.e.e.e.e.e.e.e.e.e.e.e.e.e.e.e.e.e.e.e.e.e.w.e.e.e.e.e.e.e.e.w.e.e.e.e.e.8.e.e.e.w.e.w."
};
