/* XPM */
static char *seq24[] = {
/* columns rows colors chars-per-pixel */
"64 17 2 1 ",
"  c black",
". c None",
/* pixels */
"................................................................",
"................................................................",
"..          ...          ..          ..          ...  ......  ..",
"..          ..           ..          ..           ..  ......  ..",
"..  ..........   ..........  ......  ..........   ..  ......  ..",
"..  ..........   ..........  ......  ..........   ..  ......  ..",
"..          ..          ...  ......  ...          ..          ..",
"..          ..           ..  ......  ..           ..          ..",
"... ......  ..   ...... ...  ......  ..   ...... ... ......   ..",
"..........  ..   ..........  ..  ..  ..  ...................  ..",
"..........  ..   ..........  ..  ..  ..   ..................  ..",
"..          ..           ..          ..           ..........  ..",
"..          ...          ..          ..          ...........  ..",
"...............................  ...............................",
"...............................  ...............................",
"................................................................",
"................................................................"
};
