/* XPM */
static char * goattrk2_xpm[] = {
"32 32 25 1",
" 	c #FFFFFF",
".	c #000000",
"+	c #8A95FF",
"@	c #7BB5FD",
"#	c #BDBDBD",
"$	c #95AAFF",
"%	c #404040",
"&	c #808080",
"*	c #A0BFFF",
"=	c #ACD0FF",
"-	c #B8E1FF",
";	c #C5F3FF",
">	c #D4FFEF",
",	c #E3FFBF",
"'	c #EFFF6F",
")	c #FBFF40",
"!	c #FFD343",
"~	c #FF7DA0",
"{	c #AF60EF",
"]	c #7575F4",
"^	c #5555D4",
"/	c #3535B5",
"(	c #151595",
"_	c #000080",
":	c #3790F3",
"                                ",
" ..++++++++..++++++. @@@@@@@@@@.",
" .#.$$$$$$$.#.$$$$$. @ %.....%@.",
" .&#.******.#&.****. @%.@@@@@@@.",
" =.&#.======.#&.===. @..@@@@ %@.",
" --.#&.-----.#&.---. @..@@@@%.@.",
" ;;.&&.;;;;;.#&.;;;. @%.......@.",
" >>>.#&.>>>>.#&.>>>. @@@@@@@@@@.",
" ,,,.&#&.,,.##.,,,,. @ %.....%@.",
" ''.@.##&.'.##..'''. @%%@@@@..@.",
" ).&..&#&..&#..&.)). @..@@@@..@.",
" !.#&&.##..##.&##.!. @..@@@@..@.",
" ~.#.###.###.&#.#.~. @.%.....%@.",
" {{.############.{{. @@@@@@@@@@.",
" ]]]...##.##.#..]]]. @ %.....%@.",
" ^^^^^.&#######.^^^. @%.@@@@..@.",
" /////.&&#######.//. @........@.",
" ((((((.&&#######.(. @..@@@@..@.",
" _____.&.&#.##.#.#.. @%.@@@@.%@.",
" _____.&&.&#.#####.. @@@@@@@@@@.",
" ____.&&&&.&#...#&_. @ %.....%@.",
" ___.&#####.&###&._. @@@@%.@@@@.",
" __.&#######.&#&.__. @@@@..@@@@.",
" ............&#&.... @@@@..@@@@.",
"            .&#&.    @@@@..@@@@.",
" @@@@@@@@@@@@.&.@@@@@@@@@@@@@@@.",
" @:...:..:@:.:.:..:.@.@:..@..:@.",
" @@@.@@.@.@.@.@.:@@.:.@.@@@.@.@.",
" @@@.@@..:@...@.:@@..:@..@@..:@.",
" @@@.@@.:.@.:.@.:@@.:.@.@@@.:.@.",
" @@@.@@.@.@.@.@:..:.@.@:..@.@.@.",
"................................"};
