/* XPM */
static char *wired[] = {
/* columns rows colors chars-per-pixel */
"32 32 32 1 ",
"  c #28474E",
". c #4F724E",
"X c #769C4D",
"o c #0A274E",
"O c #94BC4D",
"+ c #80A74D",
"@ c #63874D",
"# c #1E3C4E",
"$ c #3B5C4E",
"% c #8AB14D",
"& c #14324E",
"* c #597C4D",
"= c #32524E",
"- c #45674E",
"; c #6C914D",
": c #9EC74D",
"> c #011D4F",
", c gray100",
"< c gray100",
"1 c gray100",
"2 c gray100",
"3 c gray100",
"4 c gray100",
"5 c gray100",
"6 c gray100",
"7 c gray100",
"8 c gray100",
"9 c gray100",
"0 c gray100",
"q c gray100",
"w c gray100",
"e c gray100",
/* pixels */
">>>>>>-::%&>>>>>>>>>>>>>>>>>>>>>",
">>>o:::::::::>>>>>>>>>>>>>>>>>>>",
">>O:::::::::::>>>>>>>>>>>>>>>>>>",
">;:::::::::::::>>>>>>>>>>>>>>>>>",
">:::::::::::::::>>>>>>>>>>>>>>>>",
"@:::::::::::::::&>>>>>>>>>>>>>>>",
":::::::::::::::::>>>>>>>>>>>>>>>",
":::::::::::::::::>>>>>>>>>>>>>>>",
":::::::::::::::::>>>>>>>>>>>>>>>",
"::::::::::>>>::::>>>>>>>>>>>>>>>",
"O::::::::>>>>X::->>>>>>>>>>>>>>>",
">::::::::>>>>X::>>>>>>>>>>>>>>>>",
">::::::::>>>>X:>>>>>>>>>>>>>>>>>",
">>:::::::>>>>X:>>>>>>>>>>>>>>+::",
">>>+:::::>>>>X:>>>::::+>>>>:::=$",
">>>>>#:::>>>>X:>>:;>>>:>>>::>>>>",
">>>>>>>>:>>>>X:>>:>>>>:>>$:>>>>>",
">>>>>>>>:>>>>X:>>:>>>>:>>:o>>>>>",
":::>>>>>:>>>>X:>>:>>>>:>>:>>>>o>",
":::::>>>:>>>>X:>>:>>>>:>>:>>>>>:",
"::::::>>:>>>>X:>>:>>>>:>>:>>>>::",
"::::::o>:>>>>X:>>:>>>>:>>:>>>>::",
":::::::>:>>>>X:>>:>>>>:>>:>>>>:>",
":::::::>:>>>>X:>>:>>>>:>>:>>>>:>",
":::::::>: >>>>:$O:>>>>:+%:>>>>:>",
"::::::o>+:>>>>&::>>>>>>::>>>>>:>",
"::::::>>>:>>>>>>>>>>>>>>>>>>>.:>",
":::::>>>>:+>>>>>>>>>>>>>>>>>>:@>",
":::>>>>>>>::>>>>>>>>>>>>>>>>:: >",
">>>>>>>>>>>::@>>>>::::>>>>::O>>>",
">>>>>>>>>>>>>:::::@>>%::::%>>>>>",
">>>>>>>>>>>>>>>>>>>>>>>>>>>>>>>>"
};
