/* XPM */
static char *AudioCutter[] = {
/* columns rows colors chars-per-pixel */
"48 48 211 2 ",
"   c black",
".  c #000006290000",
"X  c #03F603F603F6",
"o  c #0B080B080B08",
"O  c #0C180C180C18",
"+  c #0D3C0D2F0D3C",
"@  c #0E1E0E1E0E1E",
"#  c #1E7800000000",
"$  c #102D09750975",
"%  c #1F7B0B720B72",
"&  c #00001E650000",
"*  c #1E611E610000",
"=  c #103A103A103A",
"-  c #10E110E110E1",
";  c #102E11921192",
":  c #12F912F912F9",
">  c #13F313F313F3",
",  c #14EB14DE14EB",
"<  c #167016701670",
"1  c #162616261785",
"2  c #16FD17021702",
"3  c #19501950129A",
"4  c #19DC19DC130E",
"5  c #16B216B21816",
"6  c #17E717E717E7",
"7  c #18BF18BF18BF",
"8  c #1A591A591A59",
"9  c #1A9E1A9E1A9E",
"0  c #1DFF1DFF1DFF",
"q  c #21F200000000",
"w  c #232F01D601D6",
"e  c #261000000000",
"r  c #283A00000000",
"t  c #290F00000000",
"y  c #287714080000",
"u  c #000020410000",
"i  c #000020DC0000",
"p  c #000021F20000",
"a  c #000025840000",
"s  c #000026100000",
"d  c #000027930000",
"f  c #06A127980000",
"g  c #000028380000",
"h  c #000029630000",
"j  c #00002A4D0000",
"k  c #06B828240000",
"l  c #0BD81FE10BD8",
"z  c #220E220E0000",
"x  c #20E4279B0000",
"c  c #258425840000",
"v  c #261026100000",
"b  c #24FD24FD03CB",
"n  c #215928270000",
"m  c #2826286D0000",
"M  c #294A27EB0000",
"N  c #29DB28770000",
"B  c #21B621B621B6",
"V  c #277F277F2777",
"C  c #26EC26EC2849",
"Z  c #24A424A42B54",
"A  c #241A243E2C19",
"S  c #256C24102C19",
"D  c #252F252F2C42",
"F  c #260026002C19",
"G  c #2C1923862C19",
"H  c #2AC124102C19",
"J  c #2C1924202C19",
"K  c #2C18255F2C12",
"L  c #2C1926002C19",
"P  c #27EB27EB27EB",
"I  c #291729172917",
"U  c #29E229E229E2",
"Y  c #2BD52A7D2BD5",
"T  c #2C192AC22C19",
"R  c #2C192C192C19",
"E  c #2FF02FF02FF0",
"W  c #339533953395",
"Q  c #369B369B369B",
"!  c #36E936E936E9",
"~  c #37B837B837B8",
"^  c #38E238E238E2",
"/  c #3C843C843C84",
"(  c #3CC43CC43CC4",
")  c #50462EEC2EEC",
"_  c #67253C4C3C4C",
"`  c #415D4174415D",
"'  c #42D4415842D4",
"]  c #41FB41FB41FB",
"[  c #450745074507",
"{  c #464C464C464C",
"}  c #48B048B048B0",
"|  c #48FD48FD48FD",
" . c #4B8B4B8B4B8B",
".. c #529E529E529E",
"X. c #534153415341",
"o. c #504B57335733",
"O. c #549854985498",
"+. c #559155915591",
"@. c #55DF53F755DF",
"#. c #55FF55FF55FF",
"$. c #56ED56ED56ED",
"%. c #5ED45ED45ED4",
"&. c #5F455F455F45",
"*. c #7FB77FB75E0D",
"=. c #605760576057",
"-. c #62DB62DB62DB",
";. c #62E462E462E4",
":. c #678E678E678E",
">. c #686A6723686A",
",. c #6A4F6A4F6A4F",
"<. c #6AFA6AFA6AFA",
"1. c #6D556D556D55",
"2. c #6F8E6F8E6F8E",
"3. c #672C700B700B",
"4. c #70E670E670E6",
"5. c #718771877187",
"6. c #71D673377337",
"7. c #724B724B724B",
"8. c #738873887388",
"9. c #7003700376E6",
"0. c #70A670A6778E",
"q. c #767E767E767E",
"w. c #776D776D776D",
"e. c #79F679F679F6",
"r. c #7CBA7CBA7CBA",
"t. c #7D8E7D8E7D8E",
"y. c #973500000000",
"u. c #A87B00000000",
"i. c #AE9E091B091B",
"p. c #BCE900000000",
"a. c #9C4038D138D1",
"s. c #C24A00000000",
"d. c #C73B00000000",
"f. c #C79100000000",
"g. c #C8D600000000",
"h. c #CBCC00000000",
"j. c #D87C00000000",
"k. c #E05F0BB30BB3",
"l. c #F2BC00000000",
"z. c red",
"x. c #C8D6636E0000",
"c. c #FFFF7FC30000",
"v. c #C8C449014901",
"b. c #000096920000",
"n. c #000097350000",
"m. c #0000A4D00000",
"M. c #0000A7D80000",
"N. c #0000A87B0000",
"B. c #0000BCD30000",
"V. c #3ACB9E393ACB",
"C. c #0000C24A0000",
"Z. c #0000C63A0000",
"A. c #0000C6FA0000",
"S. c #0000C78C0000",
"D. c #0000C8D60000",
"F. c #0000CD1C0000",
"G. c #0000CDC50000",
"H. c #0000D4090000",
"J. c #0000D87C0000",
"K. c #2155C7200000",
"L. c #0000F2BC0000",
"P. c #0000FFE60000",
"I. c #2ADAFFFE0000",
"U. c #4B8ACB4D4B8A",
"Y. c #969296920000",
"T. c #973597350000",
"R. c #A87BA87B0000",
"E. c #AACDAACD0000",
"W. c #AB70AB700000",
"Q. c #BCCEBCCE0000",
"!. c #B89FB89F1301",
"~. c #A4FCC6A60000",
"^. c #A584C7490000",
"/. c #C24AC24A0000",
"(. c #CF15C8330000",
"). c #C73BC8B60000",
"_. c #C749C8910000",
"`. c #CFBEC8D60000",
"'. c #D87CD87C0000",
"]. c #DC49DC490000",
"[. c #D4ACFFFF0000",
"{. c #F2BCF2BC0000",
"}. c yellow",
"|. c #EDA1EDA1187C",
" X c #805A805A5E95",
".X c #A4ECA4EC7987",
"XX c #853A853A853A",
"oX c #862A8485862A",
"OX c #8CCF8CCF8CCF",
"+X c #90C990C990C9",
"@X c #920392039203",
"#X c #929892989298",
"$X c #9244940A940A",
"%X c #931A931A931A",
"&X c #94C394C394C3",
"*X c #954195419541",
"=X c #97CA97CA97CA",
"-X c #90BE90BE999E",
";X c #A7C1A7C1A7C1",
":X c #AA09AA09AA09",
">X c #AE03AE03AE03",
",X c #B3FFB3FFB3FF",
"<X c #B46FB46FB46F",
"1X c #B5B1B5B1B5B1",
"2X c #BACABACABACA",
"3X c #BC63BC63BC63",
"4X c #CF32CF32CF32",
"5X c #D6A0D6A0D6A0",
"6X c #D7D0D7D0D7D0",
"7X c #DAA6DAA6DAA6",
"8X c #DE65DE65DE65",
/* pixels */
"+.+.+.+.+.+.+.+.$.+.+.$.+.+.$.+.+.$.@.+.+.$.+.+.$.+.$.+.+.$.$.+.+.+.+.+.+.+.+.+.+.+.+.+.+.+.+.+.",
"+.` T L G L L G L L L G L G L L L G G G L L L G A A A A A A P P P U U P P P P U U P P P V V U R ",
"+.T . i h s s s s & i h s h s & i h s h s & i k n M c * z b 3 1 > o @ 2 2 2 > O @ 2 2 2 2 2 o   ",
"+.L i m.G.Z.Z.D.B.n.m.Z.Z.Z.B.b.N.Z.Z.Z.B.n.m.K.~.(.Q.Y.E.!.*.9.:.` X.7.7.7.:.` X.7.7.2.7.7.!   ",
"+.G h H.P.P.P.P.L.C.J.P.P.P.L.C.J.P.P.P.L.C.J.I.[.}.{./.].|..X-XoX+.<.#X#X*XoX+.>.&X#X#X&X#X{   ",
"+.L i m.G.Z.Z.D.B.b.N.Z.Z.D.B.b.N.Z.Z.D.B.b.N.K.~.`.Q.Y.W.!.*.9.:.` X.7.7.8.:.` X.7.7.8.7.7.!   ",
"$.T . i h h h h s & i h h h s & i h h h s & i k n N M * z b 4 5 2 O - 2 2 2 2 O @ 2 2 2 2 2 o   ",
"+.R                                                                                             ",
"+.T . i h h h h s & i h h h s & i h h h s & i k n N c * z N m y e # q r r r q $ - 2 2 2 2 2 o   ",
"$.L i m.G.Z.Z.D.B.b.N.Z.Z.D.B.b.N.Z.Z.D.B.b.N.K.~.`.Q.T.E._._.x.p.y.u.d.g.g.i.) o.7.7.7.7.7.!   ",
"+.G h H.P.P.P.P.L.C.J.P.P.P.L.C.J.P.P.P.L.C.J.I.[.}.{./.'.}.}.c.l.s.j.z.z.z.k._ 3.#X#X#X#X#X{   ",
"+.L i m.G.Z.Z.Z.B.b.N.Z.Z.D.B.b.N.Z.D.D.B.n.N.K.~.`.Q.Y.R._._.x.p.y.u.d.d.h.i.) o.7.7.7.7.7.!   ",
"+.T . i h h h h s & i h h h s & i h h h s & i k n N c * z N m y e # q r r r q $ ; 2 2 2 2 2 o   ",
"$.R                                                                                             ",
"+.T . i h h s h s & i h h h s & i h h l 1 + - 4 2 2 2 O - 2 1 6 2 O - 5 6 2 2 O - 2 2 2 2 2 o   ",
"+.L i m.G.Z.Z.D.B.n.N.D.Z.D.B.b.N.Z.Z.V.:.' X.7.7.7.:.` X.7.7.8.>.` X.7.7.7.:.` X.7.7.7.7.7.!   ",
"+.G h H.P.P.P.P.L.C.J.P.P.P.L.C.J.P.P.U.oX@.<.#X#X&XoX+.<.#X#X&XoX+.>.#X#X&XoX+.<.#X#X#X#X#X}   ",
"+.L i m.G.Z.Z.D.B.b.N.Z.Z.D.B.b.N.D.Z.V.>.' X.7.7.8.>.` X.7.7.8.:.` O.7.7.8.>.` X.7.7.7.7.7.!   ",
"+.T . i h h h s s & i h h h s & i h h l 2 O - 6 2 1 2 O - 2 2 2 2 O - 6 2 2 2 O - 2 2 2 2 2 o   ",
"+.R                                                                                             ",
"+.R . i h h h h s & i h h h s & i h h h s & i k n N c * z m m y e # q r r r e # q r r % 2 2 o   ",
"+.L i m.G.Z.Z.D.B.b.N.Z.Z.D.B.b.N.Z.Z.D.B.b.N.K.~.`.Q.Y.E._._.x.p.y.u.d.g.g.p.y.u.d.g.a.8.7.!   ",
"+.L h H.P.P.P.P.L.C.J.P.P.P.L.C.J.P.P.P.L.C.J.I.[.}.{./.'.}.}.c.l.s.j.z.z.z.l.s.j.z.z.v.&X$X{   ",
"+.L i m.G.Z.Z.D.B.n.N.Z.Z.D.B.b.N.Z.Z.D.B.b.N.K.~.`.Q.Y.R._._.x.p.y.u.d.d.g.p.y.u.d.d.a.6.6.!   ",
"+.T . i h h s h s & i h h h s & i h h h s & i k n N c * z N N y e # q r r r e # q r r % 2 2 o   ",
"$.R                                                                                             ",
"+.R                 o 2 X             O > X             O - X             O -                   ",
"+.R                 ( =.2             ( &.>             ( %.2             ( %.2                 ",
"$.R                 | q.7             | q.7              .q.7       ^ 7.7.=X>Xt.1.+.-           ",
"+.R                 | 7.7             | 7.2             | 7.7       1.8X7X5X5X5X5X:XB           ",
"+.R                 | 7.7             | 7.7             | 7.2       >.4X3X,X1X1X2X*X0           ",
"$.R                 | 7.7       ! 7.7.*X:Xt.1.+.-       | 7.7       ! ;.+.q.OX%.+.{ O           ",
"+.R                 | 7.2       7.8X7X5X5X5X5X;XB       | 7.7             | 7.2                 ",
"+.R                 | 7.5       >.4X3X,X1X1X2X*X0       | 7.7             | 7.7                 ",
"$.R           ^ 2.7.*X:Xt.1.+.- W =.+.q.OX%.+.{ O       | 7.7             | 7.7                 ",
"+.R           2.8X7X5X5X5X5X;XB       | 7.7             | 7.2             | 7.2                 ",
"+.R           <.4X3X,X,X1X2X*X0       | 7.2             | 7.7             | 7.7                 ",
"+.R           W ;.+.q.OX=.+.{ O       | 7.7             | 8.7             | 7.2                 ",
"$.R                 | 7.7             | 7.7             | 7.7             | 7.7                 ",
"+.R                 | 7.7             | 7.7             | 7.2             | 7.7                 ",
"+.R                 | 8.7             | 7.7       ^ 7.7.*X:Xt.1.+.-       | 7.6                 ",
"+.R                 | 7.7             | 7.7       1.8X7X5X5X5X6X:XB       | 7.7                 ",
"$.R                 | 7.7             | 7.7       >.4X3X1X,X1X2X*X0       | 7.2                 ",
"+.R                  .q.7              .q.7       ! =.+.e.#X=.+.{ O       | q.7                 ",
"+.R                 ( %.-             ( %.2             ( %.-             ( %.2                 ",
"+.R                 O - X             O - X             O - X             O - X                 ",
"+.^ 0 7 7 7 7 7 7 0 2 2 7 7 9 9 7 7 7 7 2 7 7 7 7 7 7 7 2 2 7 7 7 7 0 7 7 7 2 7 7 0 7 7 7 7 7 7 ",
"+.` W ! W W ! W W W W W ! W W ! W W ! W W W W ! ! W W ! W W ! ! ! W W ! W W W W W W W ! ! W W ! "
};
